#!OML:ASF E:\emotionWalksFemale\Project 1\Capture day 1\Session 1\Female1.ASF
:FULLY-SPECIFIED
:DEGREES
2422
root 9.86523 15.3917 16.1444 0.479281 -2.15237 -3.89833
lowerback 5.69473 1.30183 1.2379
upperback 1.35907 1.81234 0.381318
thorax -1.76643 0.899575 -0.430918
lowerneck -6.51938 -1.75308 -6.24404
upperneck 47.958 -2.01237 2.10847
head 20.0021 -1.69047 1.86857
rclavicle 3.57812e-015 3.97569e-016
rhumerus -39.2893 6.67835 -88.1649
rradius 30.4197
rwrist 18.6529
rhand -5.61748 -48.6209
rfingers 7.12502
rthumb 20.2 -77.5906
lclavicle 3.57812e-015 3.97569e-016
lhumerus -35.4589 14.7965 78.7299
lradius 34.3819
lwrist -15.322
lhand -0.554426 -29.4437
lfingers 7.12502
lthumb 25.0592 -1.06772
rfemur 9.92876 2.94215 31.861
rtibia 29.8179
rfoot -3.52141 -6.17775
rtoes -2.79141
lfemur -23.7213 -27.6418 -14.7589
ltibia 28.9353
lfoot -22.8544 24.9419
ltoes 6.1551
2423
root 9.88886 15.4049 16.2543 0.39839 -1.96247 -3.80459
lowerback 5.651 1.26667 1.19121
upperback 1.33302 1.76202 0.357033
thorax -1.77028 0.874554 -0.425475
lowerneck -6.50647 -1.73338 -6.10106
upperneck 47.9123 -1.95905 1.98244
head 19.9543 -1.65633 1.78679
rclavicle -2.03257e-014 -3.57812e-015
rhumerus -39.4497 6.84044 -88.1651
rradius 30.4206
rwrist 18.6075
rhand -5.37823 -48.8104
rfingers 7.12502
rthumb 20.43 -77.7556
lclavicle -2.03257e-014 -3.57812e-015
lhumerus -35.3885 14.7626 78.7503
lradius 34.3645
lwrist -15.4962
lhand -0.602035 -29.4388
lfingers 7.12502
lthumb 25.0136 -1.05651
rfemur 9.60443 2.51655 31.4321
rtibia 30.9505
rfoot -2.4262 -5.52407
rtoes -0.904977
lfemur -23.1345 -26.9611 -15.3753
ltibia 28.7846
lfoot -20.8234 24.8359
ltoes 0.0229582
2424
root 9.91408 15.415 16.3644 0.389932 -1.80088 -3.71646
lowerback 5.53193 1.27358 1.21037
upperback 1.28092 1.77081 0.340695
thorax -1.75618 0.878818 -0.451332
lowerneck -6.47956 -1.72886 -6.05631
upperneck 47.8906 -1.92493 1.90976
head 19.9258 -1.64043 1.74808
rclavicle 4.05024e-015 2.38542e-015
rhumerus -39.6301 7.09057 -88.1575
rradius 30.386
rwrist 18.2446
rhand -5.67262 -48.7479
rfingers 7.12502
rthumb 20.147 -77.7232
lclavicle 4.05024e-015 2.38542e-015
lhumerus -35.3168 14.4624 78.9398
lradius 34.3372
lwrist -15.5263
lhand -0.872662 -29.4103
lfingers 7.12502
lthumb 24.7543 -0.992077
rfemur 9.19385 2.08995 30.9808
rtibia 32.1187
rfoot -1.07365 -4.90681
rtoes 0.0480051
lfemur -22.5992 -26.3182 -15.9259
ltibia 28.6547
lfoot -20.1272 24.1238
ltoes -1.60287
2425
root 9.93477 15.4239 16.4729 0.414484 -1.7222 -3.65706
lowerback 5.3755 1.33276 1.18397
upperback 1.23238 1.84663 0.356134
thorax -1.71892 0.916888 -0.422489
lowerneck -6.49558 -1.76161 -6.1485
upperneck 47.9124 -1.9496 1.92583
head 19.952 -1.66227 1.77048
rclavicle 9.93923e-015 1.19271e-015
rhumerus -39.7698 7.17938 -88.0596
rradius 30.341
rwrist 17.8924
rhand -6.0093 -48.5012
rfingers 7.12502
rthumb 19.8234 -77.5103
lclavicle 9.93923e-015 1.19271e-015
lhumerus -35.2044 14.0515 79.2388
lradius 34.4366
lwrist -15.3983
lhand -1.05951 -29.3986
lfingers 7.12502
lthumb 24.5752 -0.955918
rfemur 8.71264 1.86629 30.6247
rtibia 33.3342
rfoot 0.292685 -4.4034
rtoes 0.460362
lfemur -22.0781 -25.5173 -16.4121
ltibia 28.5382
lfoot -19.6299 23.2279
ltoes -2.43514
2426
root 9.95597 15.4304 16.5769 0.341573 -1.58693 -3.59216
lowerback 5.60077 1.35738 1.21052
upperback 1.07384 1.88551 0.327082
thorax -2.00518 0.933597 -0.47852
lowerneck -6.49585 -1.78469 -6.16915
upperneck 48.0014 -1.96552 1.9095
head 20.0195 -1.67416 1.76569
rclavicle -5.49143e-015 -1.98785e-015
rhumerus -40.0415 7.16295 -87.9802
rradius 30.3795
rwrist 17.8342
rhand -5.5884 -48.4505
rfingers 7.12502
rthumb 20.228 -77.4173
lclavicle -5.49143e-015 -1.98785e-015
lhumerus -35.2267 13.7937 79.3232
lradius 34.547
lwrist -15.2435
lhand -1.34367 -29.7612
lfingers 7.12502
lthumb 24.3028 -1.28173
rfemur 8.23874 1.64235 30.285
rtibia 34.6262
rfoot 1.51941 -3.98439
rtoes 0.893094
lfemur -21.4869 -24.8569 -16.9362
ltibia 28.402
lfoot -18.8422 22.6216
ltoes -3.84239
